<?xml version="1.0" encoding="UTF-8" standalone="no"?>
<svg
   width="24"
   height="24"
   version="1.1"
   id="svg6"
   sodipodi:docname="bx-cloud-download.svg"
   inkscape:version="1.1.1 (3bf5ae0d25, 2021-09-20)"
   xmlns:inkscape="http://www.inkscape.org/namespaces/inkscape"
   xmlns:sodipodi="http://sodipodi.sourceforge.net/DTD/sodipodi-0.dtd"
   xmlns="http://www.w3.org/2000/svg"
   xmlns:svg="http://www.w3.org/2000/svg">
  <defs
     id="defs10" />
  <sodipodi:namedview
     id="namedview8"
     pagecolor="#ffffff"
     bordercolor="#666666"
     borderopacity="1.0"
     inkscape:pageshadow="2"
     inkscape:pageopacity="0.0"
     inkscape:pagecheckerboard="0"
     showgrid="false"
     inkscape:zoom="36.375"
     inkscape:cx="12"
     inkscape:cy="11.986254"
     inkscape:window-width="3440"
     inkscape:window-height="1371"
     inkscape:window-x="0"
     inkscape:window-y="32"
     inkscape:window-maximized="1"
     inkscape:current-layer="svg6" />
  <path
     d="M18.948 11.112C18.511 7.67 15.563 5 12.004 5c-2.756 0-5.15 1.611-6.243 4.15-2.148.642-3.757 2.67-3.757 4.85 0 2.757 2.243 5 5 5h1v-2h-1c-1.654 0-3-1.346-3-3 0-1.404 1.199-2.757 2.673-3.016l.581-.102.192-.558C8.153 8.273 9.898 7 12.004 7c2.757 0 5 2.243 5 5v1h1c1.103 0 2 .897 2 2s-.897 2-2 2h-2v2h2c2.206 0 4-1.794 4-4a4.008 4.008 0 0 0-3.056-3.888z"
     id="path2"
     style="fill:#f7f7f7;fill-opacity:1" />
  <path
     d="M13.004 14v-4h-2v4h-3l4 5 4-5z"
     id="path4"
     style="fill:#f7f7f7;fill-opacity:1" />
</svg>
